<svg width="16" height="16" viewBox="0 0 16 16" fill="none" xmlns="http://www.w3.org/2000/svg">
<path d="M14.6667 10.7933C14.6667 13.2199 13.22 14.6666 10.7933 14.6666H10C9.63334 14.6666 9.33334 14.3666 9.33334 13.9999V10.1533C9.33334 9.97325 9.48001 9.81992 9.66001 9.81992L10.8333 9.79992C10.9267 9.79325 11.0067 9.72658 11.0267 9.63325L11.26 8.35992C11.2645 8.33106 11.2628 8.30156 11.2548 8.27345C11.2468 8.24535 11.2328 8.21931 11.2138 8.19712C11.1948 8.17494 11.1712 8.15715 11.1447 8.14497C11.1181 8.13279 11.0892 8.12652 11.06 8.12658L9.64001 8.14658C9.45334 8.14658 9.30668 7.99992 9.30001 7.81992L9.27334 6.18658C9.27334 6.07992 9.36001 5.98658 9.47334 5.98658L11.0733 5.95992C11.1867 5.95992 11.2733 5.87325 11.2733 5.75992L11.2467 4.15992C11.2467 4.04659 11.16 3.95992 11.0467 3.95992L9.24668 3.98659C8.98392 3.99058 8.72453 4.04638 8.48338 4.1508C8.24222 4.25522 8.02404 4.4062 7.84135 4.59509C7.65865 4.78398 7.51502 5.00707 7.4187 5.25157C7.32237 5.49607 7.27524 5.75717 7.28001 6.01992L7.31334 7.85325C7.32001 8.03992 7.17334 8.18658 6.98668 8.19325L6.18668 8.20658C6.07334 8.20658 5.98668 8.29325 5.98668 8.40658L6.00668 9.67325C6.00668 9.78658 6.09334 9.87325 6.20668 9.87325L7.00668 9.85992C7.19334 9.85992 7.34001 10.0066 7.34668 10.1866L7.40668 13.9866C7.41334 14.3599 7.11334 14.6666 6.74001 14.6666H5.20668C2.78001 14.6666 1.33334 13.2199 1.33334 10.7866V5.20658C1.33334 2.77992 2.78001 1.33325 5.20668 1.33325H10.7933C13.22 1.33325 14.6667 2.77992 14.6667 5.20658V10.7933Z" fill="#024089"/>
</svg>
