<svg width="16" height="16" viewBox="0 0 16 16" fill="none" xmlns="http://www.w3.org/2000/svg">
<path d="M10.7933 1.33325H5.20668C2.78001 1.33325 1.33334 2.77992 1.33334 5.20658V10.7866C1.33334 13.2199 2.78001 14.6666 5.20668 14.6666H10.7867C13.2133 14.6666 14.66 13.2199 14.66 10.7933V5.20658C14.6667 2.77992 13.22 1.33325 10.7933 1.33325ZM8.00001 10.5866C6.57334 10.5866 5.41334 9.42659 5.41334 7.99992C5.41334 6.57325 6.57334 5.41325 8.00001 5.41325C9.42668 5.41325 10.5867 6.57325 10.5867 7.99992C10.5867 9.42659 9.42668 10.5866 8.00001 10.5866ZM11.9467 4.58659C11.9133 4.66659 11.8667 4.73992 11.8067 4.80659C11.74 4.86659 11.6667 4.91325 11.5867 4.94659C11.4653 4.99808 11.3314 5.01227 11.202 4.98734C11.0726 4.9624 10.9535 4.89947 10.86 4.80659C10.8 4.73992 10.7533 4.66659 10.72 4.58659C10.6858 4.50646 10.6676 4.42038 10.6667 4.33325C10.6667 4.24659 10.6867 4.15992 10.72 4.07992C10.7533 3.99325 10.8 3.92659 10.86 3.85992C11.0133 3.70659 11.2467 3.63325 11.46 3.67992C11.5067 3.68659 11.5467 3.69992 11.5867 3.71992C11.6267 3.73325 11.6667 3.75325 11.7067 3.77992C11.74 3.79992 11.7733 3.83325 11.8067 3.85992C11.8667 3.92659 11.9133 3.99325 11.9467 4.07992C11.98 4.15992 12 4.24659 12 4.33325C12 4.41992 11.98 4.50659 11.9467 4.58659Z" fill="#024089"/>
</svg>
