<svg width="16" height="16" viewBox="0 0 16 16" fill="none" xmlns="http://www.w3.org/2000/svg">
<path fill-rule="evenodd" clip-rule="evenodd" d="M13.6667 1.33325H3.35999C3.13999 1.33325 2.92666 1.44659 2.80666 1.63325L1.77999 3.16659C1.70673 3.27488 1.66728 3.4025 1.66666 3.53325V11.9999C1.66666 12.3666 1.96666 12.6666 2.33332 12.6666H3.66666C4.03332 12.6666 4.33332 12.9666 4.33332 13.3333V13.9999C4.33332 14.3666 4.63332 14.6666 4.99999 14.6666H5.97332C6.19332 14.6666 6.40666 14.5533 6.52666 14.3666L7.46666 12.9599C7.59332 12.7733 7.79999 12.6599 8.01999 12.6599H10.72C10.9 12.6599 11.0667 12.5866 11.1933 12.4666L14.1333 9.52658C14.1954 9.46451 14.2445 9.39068 14.2777 9.3094C14.3109 9.22812 14.3275 9.14104 14.3267 9.05325V1.99992C14.3333 1.63325 14.0333 1.33325 13.6667 1.33325ZM7.19332 8.57325C7.19332 8.78658 7.01999 8.95325 6.81332 8.95325H6.05332C5.95254 8.95325 5.85589 8.91322 5.78462 8.84195C5.71336 8.77069 5.67332 8.67403 5.67332 8.57325V4.76659C5.67332 4.55325 5.84666 4.38658 6.05332 4.38658H6.81332C7.02666 4.38658 7.19332 4.55992 7.19332 4.76659V8.57325ZM11 8.57325C11 8.78658 10.8267 8.95325 10.62 8.95325H9.85999C9.81009 8.95325 9.76067 8.94342 9.71457 8.92433C9.66847 8.90523 9.62658 8.87724 9.59129 8.84195C9.556 8.80667 9.52801 8.76478 9.50892 8.71867C9.48982 8.67257 9.47999 8.62315 9.47999 8.57325V4.76659C9.47999 4.55325 9.65332 4.38658 9.85999 4.38658H10.62C10.8333 4.38658 11 4.55992 11 4.76659V8.57325Z" fill="#024089"/>
</svg>
